<svg width="18" height="18" viewBox="0 0 18 18" fill="none" xmlns="http://www.w3.org/2000/svg">
<path d="M8.61924 2.09177H5.81499C3.50874 2.09177 2.06274 3.72452 2.06274 6.03602V12.2715C2.06274 14.583 3.50199 16.2158 5.81499 16.2158H12.433C14.7467 16.2158 16.186 14.583 16.186 12.2715V9.25052" stroke="currentColor" stroke-opacity="0.5" stroke-width="1.5" stroke-linecap="round" stroke-linejoin="round"/>
<path fill-rule="evenodd" clip-rule="evenodd" d="M6.62097 8.19068L12.2257 2.58593C12.924 1.88843 14.0557 1.88843 14.754 2.58593L15.6667 3.49868C16.365 4.19693 16.365 5.32943 15.6667 6.02693L10.035 11.6587C9.72972 11.9639 9.31572 12.1357 8.88372 12.1357H6.07422L6.14472 9.30068C6.15522 8.88368 6.32547 8.48618 6.62097 8.19068Z" stroke="currentColor" stroke-opacity="0.5" stroke-width="1.5" stroke-linecap="round" stroke-linejoin="round"/>
<path d="M11.374 3.45187L14.7985 6.87637" stroke="currentColor" stroke-opacity="0.5" stroke-width="1.5" stroke-linecap="round" stroke-linejoin="round"/>
</svg>
