<svg width="18" height="18" viewBox="0 0 18 18" fill="none" xmlns="http://www.w3.org/2000/svg">
<path fill-rule="evenodd" clip-rule="evenodd" d="M9.5356 2.58062L11.2726 6.07487C11.3596 6.25112 11.5276 6.37412 11.7226 6.40262L15.6113 6.96437C15.7688 6.98537 15.9106 7.06787 16.0073 7.19387C16.1888 7.43012 16.1611 7.76462 15.9436 7.96787L13.1251 10.6934C12.9818 10.8284 12.9181 11.0264 12.9556 11.2191L13.6306 15.0651C13.6778 15.3839 13.4603 15.6824 13.1416 15.7341C13.0096 15.7544 12.8746 15.7334 12.7546 15.6741L9.2911 13.8584C9.1171 13.7639 8.9086 13.7639 8.7346 13.8584L5.2456 15.6839C4.95385 15.8324 4.59685 15.7221 4.43785 15.4364C4.3771 15.3209 4.3561 15.1896 4.3771 15.0614L5.0521 11.2154C5.08585 11.0234 5.0221 10.8261 4.8826 10.6904L2.0491 7.96562C1.8181 7.73612 1.8166 7.36262 2.04685 7.13162C2.0476 7.13087 2.04835 7.12937 2.0491 7.12862C2.14435 7.04237 2.26135 6.98462 2.3881 6.96212L6.2776 6.40037C6.47185 6.36962 6.6391 6.24812 6.7276 6.07187L8.4631 2.58062C8.53285 2.43887 8.6566 2.33012 8.8066 2.28062C8.95735 2.23037 9.12235 2.24237 9.2641 2.31362C9.38035 2.37137 9.4756 2.46512 9.5356 2.58062Z" stroke="currentColor" stroke-opacity="0.5" stroke-width="1.5" stroke-linecap="round" stroke-linejoin="round"/>
</svg>
