<svg width="18" height="18" viewBox="0 0 18 18" fill="none" xmlns="http://www.w3.org/2000/svg">
<path d="M16.2301 9.74999C16.1218 9.6605 15.9906 9.60322 15.8514 9.58465C15.7122 9.56609 15.5705 9.587 15.4426 9.64499C14.6495 10.0079 13.7873 10.1947 12.9151 10.1925C11.3017 10.1905 9.75458 9.55082 8.61096 8.41282C7.46733 7.27481 6.82 5.73082 6.8101 4.11749C6.81352 3.61187 6.87645 3.1084 6.9976 2.61749C7.02331 2.48665 7.01367 2.35131 6.96967 2.22543C6.92567 2.09955 6.8489 1.98768 6.74728 1.90134C6.64566 1.815 6.52286 1.75731 6.39152 1.73423C6.26019 1.71114 6.12508 1.72349 6.0001 1.76999C4.82435 2.29867 3.80228 3.11756 3.02992 4.14973C2.25756 5.1819 1.76026 6.39346 1.58474 7.67061C1.40922 8.94775 1.56123 10.2486 2.0265 11.4508C2.49178 12.6531 3.25504 13.7173 4.24458 14.5436C5.23412 15.3699 6.41746 15.931 7.68344 16.1744C8.94941 16.4177 10.2565 16.3352 11.4818 15.9347C12.7072 15.5341 13.8106 14.8287 14.6884 13.8846C15.5662 12.9405 16.1896 11.7887 16.5001 10.5375C16.5379 10.3942 16.5324 10.243 16.4844 10.1028C16.4363 9.96269 16.3479 9.83991 16.2301 9.74999V9.74999ZM9.1051 14.7675C7.84642 14.7586 6.62125 14.3609 5.59735 13.6288C4.57344 12.8967 3.80085 11.866 3.38536 10.6778C2.96988 9.48968 2.9318 8.20213 3.27636 6.99149C3.62091 5.78086 4.33124 4.70632 5.3101 3.91499V4.11749C5.31209 6.13385 6.11396 8.06706 7.53975 9.49285C8.96553 10.9186 10.8987 11.7205 12.9151 11.7225C13.4445 11.7244 13.9726 11.6691 14.4901 11.5575C13.9725 12.5366 13.1975 13.3559 12.2485 13.9268C11.2995 14.4978 10.2126 14.7989 9.1051 14.7975V14.7675Z" fill="currentColor" fill-opacity="0.5"/>
</svg>
