<svg width="24" height="24" viewBox="0 0 24 24" fill="none" xmlns="http://www.w3.org/2000/svg">
<path d="M14.2899 17.29L12.9999 18.59V13C12.9999 12.7348 12.8945 12.4804 12.707 12.2929C12.5195 12.1054 12.2651 12 11.9999 12C11.7347 12 11.4803 12.1054 11.2928 12.2929C11.1052 12.4804 10.9999 12.7348 10.9999 13V18.59L9.70989 17.29C9.61665 17.1968 9.50596 17.1228 9.38414 17.0724C9.26232 17.0219 9.13175 16.9959 8.99989 16.9959C8.86803 16.9959 8.73746 17.0219 8.61564 17.0724C8.49382 17.1228 8.38313 17.1968 8.28989 17.29C8.19665 17.3833 8.12269 17.4939 8.07223 17.6158C8.02177 17.7376 7.9958 17.8682 7.9958 18C7.9958 18.1319 8.02177 18.2624 8.07223 18.3843C8.12269 18.5061 8.19665 18.6168 8.28989 18.71L11.2899 21.71C11.385 21.8011 11.4971 21.8724 11.6199 21.92C11.7396 21.9729 11.869 22.0002 11.9999 22.0002C12.1308 22.0002 12.2602 21.9729 12.3799 21.92C12.5026 21.8724 12.6148 21.8011 12.7099 21.71L15.7099 18.71C15.8982 18.5217 16.004 18.2663 16.004 18C16.004 17.7337 15.8982 17.4783 15.7099 17.29C15.5216 17.1017 15.2662 16.9959 14.9999 16.9959C14.7336 16.9959 14.4782 17.1017 14.2899 17.29ZM18.4199 6.22002C17.8089 4.81602 16.7544 3.65109 15.418 2.90374C14.0815 2.15639 12.5369 1.86785 11.0209 2.08233C9.50477 2.2968 8.10082 3.00247 7.02415 4.09119C5.94747 5.17991 5.25748 6.59163 5.05989 8.11002C4.10648 8.33834 3.27011 8.90885 2.70963 9.71321C2.14914 10.5176 1.90357 11.4997 2.01955 12.4732C2.13553 13.4467 2.60498 14.3437 3.33876 14.9939C4.07253 15.644 5.01952 16.0021 5.99989 16C6.26511 16 6.51946 15.8947 6.707 15.7071C6.89453 15.5196 6.99989 15.2652 6.99989 15C6.99989 14.7348 6.89453 14.4804 6.707 14.2929C6.51946 14.1054 6.26511 14 5.99989 14C5.46946 14 4.96075 13.7893 4.58568 13.4142C4.2106 13.0392 3.99989 12.5304 3.99989 12C3.99989 11.4696 4.2106 10.9609 4.58568 10.5858C4.96075 10.2107 5.46946 10 5.99989 10C6.26511 10 6.51946 9.89466 6.707 9.70712C6.89453 9.51959 6.99989 9.26523 6.99989 9.00002C7.00244 7.81729 7.42418 6.67377 8.19016 5.7726C8.95614 4.87143 10.0168 4.27097 11.1836 4.07789C12.3505 3.88481 13.548 4.11162 14.5635 4.71803C15.5789 5.32443 16.3465 6.27116 16.7299 7.39002C16.7871 7.56186 16.8898 7.71495 17.0272 7.83295C17.1646 7.95095 17.3314 8.02943 17.5099 8.06002C18.176 8.18589 18.7798 8.53362 19.2229 9.04655C19.6661 9.55948 19.9225 10.2074 19.9503 10.8847C19.9781 11.5619 19.7758 12.2287 19.3762 12.7762C18.9766 13.3238 18.4034 13.7199 17.7499 13.9C17.6225 13.9328 17.5028 13.9904 17.3977 14.0695C17.2926 14.1486 17.2041 14.2476 17.1372 14.3609C17.0704 14.4742 17.0265 14.5995 17.0081 14.7298C16.9896 14.86 16.9971 14.9926 17.0299 15.12C17.0627 15.2474 17.1203 15.3671 17.1994 15.4722C17.2785 15.5773 17.3775 15.6658 17.4908 15.7327C17.6041 15.7995 17.7294 15.8434 17.8597 15.8619C17.9899 15.8803 18.1225 15.8728 18.2499 15.84C19.3023 15.5619 20.2352 14.948 20.9069 14.0915C21.5786 13.235 21.9525 12.1826 21.9717 11.0943C21.991 10.0059 21.6545 8.94106 21.0135 8.06134C20.3724 7.18161 19.4618 6.53511 18.4199 6.22002Z" fill="currentColor"/>
</svg>
