<svg width="18" height="19" viewBox="0 0 18 19" fill="none" xmlns="http://www.w3.org/2000/svg">
<path fill-rule="evenodd" clip-rule="evenodd" d="M8.82076 16.1845C7.1928 15.1826 5.67833 14.0034 4.30447 12.668C3.33858 11.7064 2.60325 10.534 2.15482 9.2407C1.34786 6.73189 2.29045 3.85978 4.92834 3.0098C6.31471 2.56349 7.82884 2.81857 8.99707 3.69527C10.1657 2.81964 11.6793 2.56464 13.0658 3.0098C15.7037 3.85978 16.6531 6.73189 15.8461 9.2407C15.3977 10.534 14.6623 11.7064 13.6965 12.668C12.3226 14.0034 10.8081 15.1826 9.18016 16.1845L9.00385 16.2942L8.82076 16.1845Z" stroke="currentColor" stroke-width="1.5" stroke-linecap="round" stroke-linejoin="round"/>
<path d="M11.8045 5.83392C12.6035 6.08915 13.1712 6.80645 13.2421 7.65041" stroke="currentColor" stroke-width="1.5" stroke-linecap="round" stroke-linejoin="round"/>
</svg>
