<svg width="18" height="18" viewBox="0 0 18 18" fill="none" xmlns="http://www.w3.org/2000/svg">
<path d="M4.23 12.75L3.6975 13.2825C3.55781 13.423 3.47941 13.6131 3.47941 13.8113C3.47941 14.0094 3.55781 14.1995 3.6975 14.34C3.83802 14.4797 4.02811 14.5581 4.22625 14.5581C4.42439 14.5581 4.61448 14.4797 4.755 14.34L5.2875 13.8075C5.41037 13.664 5.47457 13.4795 5.46728 13.2907C5.45999 13.102 5.38174 12.9229 5.24817 12.7893C5.1146 12.6558 4.93555 12.5775 4.74679 12.5702C4.55803 12.5629 4.37348 12.6271 4.23 12.75ZM3.75 9C3.75 8.80109 3.67098 8.61032 3.53033 8.46967C3.38968 8.32902 3.19891 8.25 3 8.25H2.25C2.05109 8.25 1.86032 8.32902 1.71967 8.46967C1.57902 8.61032 1.5 8.80109 1.5 9C1.5 9.19891 1.57902 9.38968 1.71967 9.53033C1.86032 9.67098 2.05109 9.75 2.25 9.75H3C3.19891 9.75 3.38968 9.67098 3.53033 9.53033C3.67098 9.38968 3.75 9.19891 3.75 9ZM9 3.75C9.19891 3.75 9.38968 3.67098 9.53033 3.53033C9.67098 3.38968 9.75 3.19891 9.75 3V2.25C9.75 2.05109 9.67098 1.86032 9.53033 1.71967C9.38968 1.57902 9.19891 1.5 9 1.5C8.80109 1.5 8.61032 1.57902 8.46967 1.71967C8.32902 1.86032 8.25 2.05109 8.25 2.25V3C8.25 3.19891 8.32902 3.38968 8.46967 3.53033C8.61032 3.67098 8.80109 3.75 9 3.75ZM4.23 5.2875C4.3697 5.42606 4.55825 5.50417 4.755 5.505C4.85371 5.50557 4.95155 5.48665 5.04293 5.44933C5.13431 5.41201 5.21742 5.35701 5.2875 5.2875C5.42719 5.14698 5.50559 4.95689 5.50559 4.75875C5.50559 4.56061 5.42719 4.37052 5.2875 4.23L4.755 3.6975C4.61152 3.57463 4.42697 3.51043 4.23821 3.51772C4.04945 3.52501 3.8704 3.60326 3.73683 3.73683C3.60326 3.8704 3.52501 4.04945 3.51772 4.23821C3.51043 4.42697 3.57463 4.61152 3.6975 4.755L4.23 5.2875ZM13.23 5.505C13.4268 5.50417 13.6153 5.42606 13.755 5.2875L14.2875 4.755C14.366 4.68776 14.4298 4.60503 14.4748 4.51198C14.5198 4.41893 14.5451 4.31758 14.5491 4.21429C14.5531 4.111 14.5357 4.008 14.498 3.91176C14.4603 3.81551 14.4031 3.7281 14.33 3.65501C14.2569 3.58192 14.1695 3.52473 14.0732 3.48702C13.977 3.44932 13.874 3.43191 13.7707 3.4359C13.6674 3.43989 13.5661 3.46519 13.473 3.51021C13.38 3.55522 13.2972 3.61899 13.23 3.6975L12.75 4.23C12.6103 4.37052 12.5319 4.56061 12.5319 4.75875C12.5319 4.95689 12.6103 5.14698 12.75 5.2875C12.8822 5.41902 13.0587 5.49656 13.245 5.505H13.23ZM15.75 8.25H15C14.8011 8.25 14.6103 8.32902 14.4697 8.46967C14.329 8.61032 14.25 8.80109 14.25 9C14.25 9.19891 14.329 9.38968 14.4697 9.53033C14.6103 9.67098 14.8011 9.75 15 9.75H15.75C15.9489 9.75 16.1397 9.67098 16.2803 9.53033C16.421 9.38968 16.5 9.19891 16.5 9C16.5 8.80109 16.421 8.61032 16.2803 8.46967C16.1397 8.32902 15.9489 8.25 15.75 8.25ZM9 14.25C8.80109 14.25 8.61032 14.329 8.46967 14.4697C8.32902 14.6103 8.25 14.8011 8.25 15V15.75C8.25 15.9489 8.32902 16.1397 8.46967 16.2803C8.61032 16.421 8.80109 16.5 9 16.5C9.19891 16.5 9.38968 16.421 9.53033 16.2803C9.67098 16.1397 9.75 15.9489 9.75 15.75V15C9.75 14.8011 9.67098 14.6103 9.53033 14.4697C9.38968 14.329 9.19891 14.25 9 14.25ZM13.77 12.75C13.6275 12.6707 13.4631 12.6401 13.3016 12.6627C13.1401 12.6852 12.9904 12.7598 12.8751 12.8751C12.7598 12.9904 12.6852 13.1401 12.6627 13.3016C12.6401 13.4631 12.6707 13.6275 12.75 13.77L13.2825 14.3025C13.423 14.4422 13.6131 14.5206 13.8113 14.5206C14.0094 14.5206 14.1995 14.4422 14.34 14.3025C14.4797 14.162 14.5581 13.9719 14.5581 13.7738C14.5581 13.5756 14.4797 13.3855 14.34 13.245L13.77 12.75ZM9 4.875C8.18415 4.875 7.38663 5.11693 6.70827 5.57019C6.02992 6.02345 5.50121 6.66769 5.189 7.42143C4.87679 8.17518 4.7951 9.00458 4.95426 9.80475C5.11342 10.6049 5.50629 11.3399 6.08318 11.9168C6.66008 12.4937 7.39508 12.8866 8.19525 13.0457C8.99542 13.2049 9.82482 13.1232 10.5786 12.811C11.3323 12.4988 11.9766 11.9701 12.4298 11.2917C12.8831 10.6134 13.125 9.81585 13.125 9C13.123 7.90659 12.6878 6.85853 11.9146 6.08537C11.1415 5.31222 10.0934 4.87698 9 4.875ZM9 11.625C8.48082 11.625 7.97331 11.471 7.54163 11.1826C7.10995 10.8942 6.7735 10.4842 6.57482 10.0045C6.37614 9.52489 6.32415 8.99709 6.42544 8.48789C6.52672 7.97869 6.77673 7.51096 7.14384 7.14384C7.51096 6.77673 7.97869 6.52672 8.48789 6.42544C8.99709 6.32415 9.52489 6.37614 10.0045 6.57482C10.4842 6.7735 10.8942 7.10995 11.1826 7.54163C11.471 7.97331 11.625 8.48082 11.625 9C11.625 9.69619 11.3484 10.3639 10.8562 10.8562C10.3639 11.3484 9.69619 11.625 9 11.625Z" fill="currentColor" fill-opacity="0.5"/>
</svg>
