<svg width="18" height="18" viewBox="0 0 18 18" fill="none" xmlns="http://www.w3.org/2000/svg">
<path d="M2.10327 11.6077C2.10327 11.6077 2.20977 12.9112 2.23452 13.3222C2.26752 13.8735 2.48052 14.4892 2.83602 14.9167C3.33777 15.5227 3.92877 15.7365 4.71777 15.738C5.64552 15.7395 12.3918 15.7395 13.3195 15.738C14.1085 15.7365 14.6995 15.5227 15.2013 14.9167C15.5568 14.4892 15.7698 13.8735 15.8035 13.3222C15.8275 12.9112 15.934 11.6077 15.934 11.6077" stroke="currentColor" stroke-opacity="0.5" stroke-width="1.5" stroke-linecap="round" stroke-linejoin="round"/>
<path d="M6.37207 3.99712V3.71887C6.37207 2.80387 7.11307 2.06287 8.02807 2.06287H9.96457C10.8788 2.06287 11.6206 2.80387 11.6206 3.71887L11.6213 3.99712" stroke="currentColor" stroke-opacity="0.5" stroke-width="1.5" stroke-linecap="round" stroke-linejoin="round"/>
<path d="M8.99634 12.5086V11.5381" stroke="currentColor" stroke-opacity="0.5" stroke-width="1.5" stroke-linecap="round" stroke-linejoin="round"/>
<path fill-rule="evenodd" clip-rule="evenodd" d="M2.0625 6.29182V8.89207C3.501 9.84082 5.2245 10.5053 7.116 10.7686C7.3425 9.94282 8.08725 9.33757 8.9925 9.33757C9.8835 9.33757 10.6432 9.94282 10.8547 10.7761C12.7537 10.5128 14.484 9.84832 15.93 8.89207V6.29182C15.93 5.02132 14.9077 3.99832 13.6372 3.99832H4.36275C3.09225 3.99832 2.0625 5.02132 2.0625 6.29182Z" stroke="currentColor" stroke-opacity="0.5" stroke-width="1.5" stroke-linecap="round" stroke-linejoin="round"/>
</svg>
