<svg width="18" height="19" viewBox="0 0 18 19" fill="none" xmlns="http://www.w3.org/2000/svg">
<path d="M15.4576 14.9367C15.9276 14.3066 16.2502 13.5791 16.4014 12.8077C16.5527 12.0364 16.5288 11.2409 16.3316 10.48C16.1344 9.71909 15.7688 9.01219 15.2618 8.41146C14.7549 7.81074 14.1195 7.33151 13.4026 7.00915C13.2464 6.11073 12.8875 5.25972 12.3532 4.52078C11.8189 3.78184 11.1231 3.17442 10.3188 2.74468C9.51456 2.31493 8.6229 2.07416 7.71163 2.04066C6.80035 2.00716 5.89342 2.18181 5.05976 2.55135C4.2261 2.92089 3.48764 3.47558 2.90048 4.17329C2.31333 4.871 1.89293 5.69337 1.67123 6.5779C1.44953 7.46243 1.43237 8.38586 1.62104 9.27803C1.80972 10.1702 2.19926 11.0076 2.76008 11.7267L1.71758 12.7617C1.61352 12.8671 1.54302 13.0011 1.51499 13.1465C1.48696 13.292 1.50265 13.4426 1.56008 13.5792C1.61635 13.7161 1.7119 13.8334 1.83469 13.9161C1.95748 13.9989 2.10202 14.0434 2.25008 14.0442H6.51758C6.94257 14.9401 7.61261 15.6974 8.45014 16.2283C9.28768 16.7592 10.2585 17.0421 11.2501 17.0442H15.7501C15.8982 17.0434 16.0427 16.9989 16.1655 16.9161C16.2883 16.8334 16.3838 16.7161 16.4401 16.5792C16.4975 16.4426 16.5132 16.292 16.4852 16.1465C16.4571 16.0011 16.3867 15.8671 16.2826 15.7617L15.4576 14.9367ZM6.00008 11.7942C6.00111 12.0453 6.02117 12.296 6.06008 12.5442H4.05758L4.32009 12.2892C4.39038 12.2194 4.44618 12.1365 4.48425 12.0451C4.52233 11.9537 4.54193 11.8557 4.54193 11.7567C4.54193 11.6576 4.52233 11.5596 4.48425 11.4682C4.44618 11.3768 4.39038 11.2939 4.32009 11.2242C3.89975 10.8084 3.56652 10.3131 3.33987 9.76707C3.11323 9.22106 2.99771 8.63533 3.00008 8.04415C3.00008 6.85068 3.47419 5.70609 4.3181 4.86217C5.16202 4.01826 6.30661 3.54415 7.50008 3.54415C8.43135 3.53856 9.34095 3.82494 10.101 4.36305C10.8611 4.90116 11.4334 5.66394 11.7376 6.54415C11.5726 6.54415 11.4151 6.54415 11.2501 6.54415C9.8577 6.54415 8.52234 7.09728 7.53778 8.08184C6.55321 9.06641 6.00008 10.4018 6.00008 11.7942ZM13.9051 15.5442L13.9426 15.5817H11.2501C10.3826 15.5801 9.54246 15.2778 8.87282 14.7264C8.20319 14.1749 7.74546 13.4083 7.57763 12.5572C7.4098 11.7061 7.54224 10.8231 7.95239 10.0587C8.36254 9.29425 9.02503 8.69568 9.827 8.36493C10.629 8.03417 11.5208 7.99169 12.3506 8.24472C13.1804 8.49776 13.8967 9.03065 14.3777 9.75262C14.8586 10.4746 15.0744 11.341 14.9882 12.2042C14.9021 13.0674 14.5193 13.874 13.9051 14.4867C13.7638 14.6251 13.6829 14.8138 13.6801 15.0117C13.6805 15.1109 13.7006 15.209 13.7392 15.3005C13.7778 15.3919 13.8342 15.4747 13.9051 15.5442Z" fill="currentColor" fill-opacity="0.5"/>
</svg>
