<svg width="18" height="18" viewBox="0 0 18 18" fill="none" xmlns="http://www.w3.org/2000/svg">
<path fill-rule="evenodd" clip-rule="evenodd" d="M15.6051 5.71768L15.1382 4.90761C14.7433 4.22217 13.8681 3.98571 13.1817 4.37901V4.37901C12.855 4.57148 12.4651 4.62608 12.0981 4.53078C11.7311 4.43549 11.417 4.19811 11.2252 3.871C11.1018 3.66308 11.0355 3.42627 11.033 3.1845V3.1845C11.0441 2.79689 10.8979 2.42127 10.6276 2.14322C10.3573 1.86517 9.98596 1.70837 9.59819 1.70853H8.65769C8.27779 1.70852 7.91355 1.85991 7.64556 2.12918C7.37758 2.39845 7.22794 2.76341 7.22977 3.14331V3.14331C7.21851 3.92766 6.57942 4.55758 5.79499 4.5575C5.55322 4.55499 5.3164 4.48868 5.10849 4.36528V4.36528C4.42211 3.97198 3.5469 4.20844 3.15197 4.89388L2.65082 5.71768C2.25637 6.40226 2.48961 7.27692 3.17256 7.6742V7.6742C3.61649 7.9305 3.88996 8.40416 3.88996 8.91676C3.88996 9.42937 3.61649 9.90303 3.17256 10.1593V10.1593C2.49048 10.5539 2.25698 11.4265 2.65082 12.109V12.109L3.12451 12.9259C3.30955 13.2598 3.62001 13.5062 3.98721 13.6106C4.3544 13.7149 4.74804 13.6686 5.08103 13.482V13.482C5.40837 13.291 5.79845 13.2386 6.16457 13.3366C6.53068 13.4346 6.84249 13.6748 7.03068 14.0037C7.15408 14.2116 7.22039 14.4485 7.2229 14.6902V14.6902C7.2229 15.4826 7.86528 16.125 8.65769 16.125H9.59819C10.3879 16.125 11.0292 15.4868 11.033 14.6971V14.6971C11.0311 14.316 11.1817 13.95 11.4512 13.6805C11.7207 13.411 12.0867 13.2605 12.4678 13.2623C12.7089 13.2688 12.9448 13.3348 13.1543 13.4545V13.4545C13.8388 13.849 14.7135 13.6157 15.1108 12.9328V12.9328L15.6051 12.109C15.7964 11.7806 15.8489 11.3895 15.751 11.0222C15.653 10.655 15.4127 10.342 15.0833 10.1525V10.1525C14.7539 9.96294 14.5136 9.6499 14.4157 9.28268C14.3177 8.91545 14.3703 8.52433 14.5616 8.19594C14.686 7.97872 14.8661 7.79862 15.0833 7.6742V7.6742C15.7622 7.27714 15.9949 6.40759 15.6051 5.72454V5.72454V5.71768Z" stroke="currentColor" stroke-opacity="0.5" stroke-width="1.5" stroke-linecap="round" stroke-linejoin="round"/>
<circle cx="9.13141" cy="8.91677" r="1.97712" stroke="currentColor" stroke-opacity="0.5" stroke-width="1.5" stroke-linecap="round" stroke-linejoin="round"/>
</svg>
