<svg width="64" height="64" viewBox="0 0 64 64" fill="none" xmlns="http://www.w3.org/2000/svg">
<rect width="64" height="64" rx="16" fill="white"/>
<g clip-path="url(#clip0_92_5)">
<mask id="mask0_92_5" style="mask-type:luminance" maskUnits="userSpaceOnUse" x="12" y="12" width="40" height="40">
<path d="M12 12H52V52H12V12Z" fill="white"/>
</mask>
<g mask="url(#mask0_92_5)">
<path d="M30.9473 32.0001C30.9473 37.8127 26.941 42.5264 22 42.5264C17.0589 42.5264 13.0526 37.8127 13.0526 32.0001C13.0526 26.1864 17.0589 21.4737 22 21.4737C26.941 21.4737 30.9473 26.1864 30.9473 32.0001ZM50.9474 32.0001C50.9474 37.8127 46.941 42.5264 42 42.5264C37.0589 42.5264 33.0526 37.8127 33.0526 32.0001C33.0526 26.1864 37.0589 21.4737 42 21.4737C46.941 21.4737 50.9474 26.1864 50.9474 32.0001Z" fill="#00A63E"/>
<path d="M21.4737 36.2105C21.4737 37.048 21.141 37.8513 20.5488 38.4435C19.9565 39.0357 19.1533 39.3684 18.3158 39.3684C17.4783 39.3684 16.675 39.0357 16.0828 38.4435C15.4906 37.8513 15.1579 37.048 15.1579 36.2105C15.1579 35.373 15.4906 34.5698 16.0828 33.9775C16.675 33.3853 17.4783 33.0526 18.3158 33.0526C19.1533 33.0526 19.9565 33.3853 20.5488 33.9775C21.141 34.5698 21.4737 35.373 21.4737 36.2105ZM41.4737 36.2105C41.4737 36.6252 41.392 37.0359 41.2333 37.419C41.0746 37.8021 40.842 38.1502 40.5488 38.4435C40.2555 38.7367 39.9074 38.9693 39.5243 39.128C39.1411 39.2867 38.7305 39.3684 38.3158 39.3684C37.9011 39.3684 37.4905 39.2867 37.1073 39.128C36.7242 38.9693 36.3761 38.7367 36.0828 38.4435C35.7896 38.1502 35.557 37.8021 35.3983 37.419C35.2396 37.0359 35.1579 36.6252 35.1579 36.2105C35.1579 35.373 35.4906 34.5698 36.0828 33.9775C36.675 33.3853 37.4783 33.0526 38.3158 33.0526C39.1533 33.0526 39.9565 33.3853 40.5488 33.9775C41.141 34.5698 41.4737 35.373 41.4737 36.2105Z" fill="#FAFAF9"/>
</g>
</g>
<defs>
<clipPath id="clip0_92_5">
<rect width="40" height="40" fill="white" transform="translate(12 12)"/>
</clipPath>
</defs>
</svg>
