<svg width="64" height="64" viewBox="0 0 64 64" fill="none" xmlns="http://www.w3.org/2000/svg">
<rect width="64" height="64" rx="16" fill="black"/>
<path d="M19.108 41.16C18.3613 41.16 17.7107 40.9147 17.156 40.424C16.6013 39.9333 16.324 39.1333 16.324 38.024C16.324 37.9173 16.324 37.8107 16.324 37.704C16.324 37.5973 16.3347 37.4907 16.356 37.384C15.716 38.664 14.9907 39.6133 14.18 40.232C13.3907 40.8293 12.5907 41.128 11.78 41.128C11.0333 41.128 10.3293 40.872 9.668 40.36C9.00667 39.8267 8.47333 39.048 8.068 38.024C7.66267 37 7.46 35.7627 7.46 34.312C7.46 32.8187 7.66267 31.4853 8.068 30.312C8.49467 29.1387 9.04933 28.1467 9.732 27.336C10.4147 26.5253 11.1613 25.9173 11.972 25.512C12.7827 25.0853 13.572 24.872 14.34 24.872C15.1933 24.872 15.9613 25.1387 16.644 25.672C17.3267 26.184 17.796 27.0053 18.052 28.136C18.116 27.7733 18.1587 27.4427 18.18 27.144C18.2227 26.8453 18.244 26.6427 18.244 26.536C18.2653 25.96 18.5533 25.5333 19.108 25.256C19.684 24.9787 20.3133 24.84 20.996 24.84C21.5933 24.84 22.1587 24.9573 22.692 25.192C23.2253 25.4267 23.588 25.8213 23.78 26.376L23.844 26.568C23.588 27.144 23.332 27.8373 23.076 28.648C22.82 29.4587 22.5853 30.312 22.372 31.208C22.1587 32.0827 21.988 32.9467 21.86 33.8C21.732 34.632 21.668 35.368 21.668 36.008C21.668 36.712 21.7427 37.2027 21.892 37.48C22.0413 37.736 22.2227 37.864 22.436 37.864C22.7987 37.864 23.1293 37.608 23.428 37.096L23.684 37.224C23.684 37.9493 23.4493 38.6107 22.98 39.208C22.5107 39.8053 21.924 40.2853 21.22 40.648C20.516 40.9893 19.812 41.16 19.108 41.16ZM13.892 37.096C14.4467 37.096 15.0547 36.6053 15.716 35.624C16.3987 34.6213 16.9853 33.192 17.476 31.336C17.5187 31.144 17.5613 30.9627 17.604 30.792C17.6467 30.6 17.6787 30.4187 17.7 30.248C17.3587 29.4587 16.996 28.904 16.612 28.584C16.2493 28.2427 15.8867 28.072 15.524 28.072C14.9907 28.072 14.4893 28.36 14.02 28.936C13.572 29.4907 13.1987 30.1947 12.9 31.048C12.6227 31.9013 12.484 32.7547 12.484 33.608C12.484 34.7813 12.612 35.656 12.868 36.232C13.1453 36.808 13.4867 37.096 13.892 37.096ZM17.06 23.688C15.9507 23.176 15.0547 22.6853 14.372 22.216C13.6893 21.7467 13.156 21.2667 12.772 20.776C12.388 20.2853 12.068 19.7627 11.812 19.208C11.5133 18.5253 11.46 17.928 11.652 17.416C11.844 16.8827 12.1747 16.4667 12.644 16.168C13.1347 15.848 13.6787 15.6453 14.276 15.56C14.8947 15.4747 15.4813 15.5173 16.036 15.688C15.9933 16.2853 16.1 17.0213 16.356 17.896C16.6333 18.7493 16.996 19.624 17.444 20.52C17.9133 21.3947 18.4147 22.152 18.948 22.792C18.948 23.24 18.7773 23.5707 18.436 23.784C18.116 23.9973 17.6573 23.9653 17.06 23.688ZM30.9 41.288C29.5773 41.288 28.4787 41.1067 27.604 40.744C26.7293 40.3813 26.0787 39.9227 25.652 39.368C25.2253 38.792 25.012 38.216 25.012 37.64C25.012 36.8293 25.3747 36.1147 26.1 35.496C26.8253 34.856 27.8067 34.536 29.044 34.536C29.044 35.624 29.1827 36.4987 29.46 37.16C29.7373 37.8 30.0893 38.2587 30.516 38.536C30.964 38.8133 31.3907 38.952 31.796 38.952C32.2867 38.952 32.692 38.8133 33.012 38.536C33.3533 38.2373 33.524 37.8747 33.524 37.448C33.524 36.8507 33.2147 36.328 32.596 35.88C31.9773 35.432 31.1773 34.9307 30.196 34.376C29.7053 34.0773 29.172 33.736 28.596 33.352C28.02 32.9467 27.5293 32.4667 27.124 31.912C26.7187 31.336 26.516 30.6533 26.516 29.864C26.516 29.032 26.7507 28.296 27.22 27.656C27.7107 27.016 28.3507 26.4827 29.14 26.056C29.9293 25.608 30.7827 25.2773 31.7 25.064C32.6173 24.8293 33.5133 24.712 34.388 24.712C36.0307 24.712 37.268 25.0427 38.1 25.704C38.932 26.3653 39.348 27.0693 39.348 27.816C39.348 28.456 39.028 29.032 38.388 29.544C37.748 30.056 36.7667 30.312 35.444 30.312C35.4653 29.224 35.2413 28.4347 34.772 27.944C34.3027 27.432 33.8013 27.176 33.268 27.176C32.884 27.176 32.564 27.2933 32.308 27.528C32.052 27.7627 31.924 28.104 31.924 28.552C31.924 29.064 32.084 29.512 32.404 29.896C32.7453 30.2587 33.1613 30.5893 33.652 30.888C34.164 31.1653 34.6867 31.432 35.22 31.688C35.9453 32.0293 36.628 32.392 37.268 32.776C37.908 33.16 38.4307 33.5973 38.836 34.088C39.2413 34.5787 39.444 35.176 39.444 35.88C39.444 36.84 39.0493 37.736 38.26 38.568C37.492 39.3787 36.4573 40.04 35.156 40.552C33.8547 41.0427 32.436 41.288 30.9 41.288ZM30.772 48.68C30.0467 48.68 29.4387 48.4133 28.948 47.88C28.4787 47.3467 28.2653 46.6853 28.308 45.896C28.372 45.0213 28.7027 44.264 29.3 43.624C29.9187 43.0053 30.6227 42.696 31.412 42.696C32.1587 42.696 32.7667 42.9627 33.236 43.496C33.7267 44.0293 33.9507 44.6907 33.908 45.48C33.844 46.376 33.5027 47.1333 32.884 47.752C32.2867 48.3707 31.5827 48.68 30.772 48.68ZM48.1838 41.224C46.6264 41.224 45.3358 40.9147 44.3118 40.296C43.2878 39.656 42.5198 38.824 42.0078 37.8C41.4958 36.7547 41.2398 35.6347 41.2398 34.44C41.2398 33.3093 41.4531 32.1787 41.8798 31.048C42.3278 29.896 42.9678 28.8507 43.7998 27.912C44.6531 26.9733 45.6771 26.216 46.8718 25.64C48.0878 25.064 49.4531 24.776 50.9678 24.776C52.8451 24.776 54.2104 25.2027 55.0638 26.056C55.9384 26.888 56.3758 27.9013 56.3758 29.096C56.3758 30.12 56.0984 31.0693 55.5438 31.944C55.0104 32.7973 54.2958 33.4907 53.3998 34.024C52.5038 34.536 51.5224 34.792 50.4558 34.792C49.9011 34.792 49.3358 34.7067 48.7598 34.536C48.1838 34.3653 47.6184 34.0987 47.0638 33.736C47.1704 35.0587 47.5544 36.0187 48.2158 36.616C48.8771 37.2133 49.6664 37.512 50.5838 37.512C51.2238 37.512 51.8638 37.3947 52.5038 37.16C53.1438 36.904 53.7304 36.584 54.2638 36.2C54.8184 35.7947 55.2451 35.368 55.5438 34.92L55.7678 35.08C55.7678 36.1893 55.5331 37.1387 55.0638 37.928C54.6158 38.696 54.0184 39.3253 53.2718 39.816C52.5251 40.3067 51.7038 40.6693 50.8078 40.904C49.9331 41.1173 49.0584 41.224 48.1838 41.224ZM48.9198 32.584C49.6024 32.584 50.1571 32.392 50.5838 32.008C51.0104 31.6027 51.3304 31.1333 51.5438 30.6C51.7571 30.0667 51.8638 29.5973 51.8638 29.192C51.8638 28.7013 51.7251 28.296 51.4478 27.976C51.1704 27.6347 50.7864 27.464 50.2958 27.464C49.9118 27.464 49.4851 27.6027 49.0158 27.88C48.5678 28.1573 48.1624 28.6373 47.7998 29.32C47.4371 29.9813 47.2024 30.9093 47.0958 32.104C47.7784 32.424 48.3864 32.584 48.9198 32.584ZM47.2558 48.68C46.5304 48.68 45.9224 48.4133 45.4318 47.88C44.9624 47.3467 44.7491 46.6853 44.7918 45.896C44.8558 45.0213 45.1864 44.264 45.7838 43.624C46.4024 43.0053 47.1064 42.696 47.8958 42.696C48.6424 42.696 49.2504 42.9627 49.7198 43.496C50.2104 44.0293 50.4344 44.6907 50.3918 45.48C50.3278 46.376 49.9864 47.1333 49.3678 47.752C48.7704 48.3707 48.0664 48.68 47.2558 48.68Z" fill="#FA912A"/>
</svg>
