<svg width="64" height="64" viewBox="0 0 64 64" fill="none" xmlns="http://www.w3.org/2000/svg">
<rect width="64" height="64" rx="16" fill="white"/>
<path d="M17.4181 24.6094C17.0302 24.2189 17.0307 23.5884 17.4192 23.1986L23.2418 17.3573C23.6325 16.9652 24.2675 16.9652 24.6583 17.3573L30.4808 23.1986C30.8693 23.5884 30.8698 24.2189 30.4819 24.6094L24.6594 30.4694C24.2683 30.863 23.6317 30.863 23.2406 30.4694L17.4181 24.6094Z" fill="#FFBDA8"/>
<path d="M9.367 32.7048C8.9795 32.3148 8.9795 31.6851 9.367 31.2951L15.1906 25.4339C15.5817 25.0404 16.2184 25.0404 16.6094 25.4339L22.433 31.2951C22.8205 31.6851 22.8205 32.3148 22.433 32.7048L16.6094 38.566C16.2184 38.9596 15.5817 38.9596 15.1906 38.566L9.367 32.7048Z" fill="#FF825C"/>
<path d="M17.417 40.8015C17.0295 40.4115 17.0295 39.7818 17.417 39.3918L23.2406 33.5306C23.6317 33.137 24.2683 33.137 24.6594 33.5306L30.483 39.3918C30.8705 39.7818 30.8705 40.4115 30.483 40.8015L24.6594 46.6627C24.2683 47.0563 23.6317 47.0563 23.2406 46.6627L17.417 40.8015Z" fill="#FF3C00"/>
<path d="M33.5181 24.6094C33.1302 24.2189 33.1307 23.5884 33.5193 23.1986L39.3418 17.3573C39.7326 16.9652 40.3675 16.9652 40.7583 17.3573L46.5808 23.1986C46.9694 23.5884 46.9699 24.2189 46.5819 24.6094L40.7594 30.4694C40.3684 30.863 39.7317 30.863 39.3407 30.4694L33.5181 24.6094Z" fill="#FFBDA8"/>
<path d="M41.567 32.7048C41.1795 32.3148 41.1795 31.6851 41.567 31.2951L47.3907 25.4339C47.7817 25.0404 48.4184 25.0404 48.8094 25.4339L54.6331 31.2951C55.0206 31.6851 55.0206 32.3148 54.6331 32.7048L48.8094 38.566C48.4184 38.9596 47.7817 38.9596 47.3907 38.566L41.567 32.7048Z" fill="#FF825C"/>
<path d="M33.517 40.8015C33.1295 40.4115 33.1295 39.7818 33.517 39.3918L39.3407 33.5306C39.7317 33.137 40.3684 33.137 40.7594 33.5306L46.5831 39.3918C46.9706 39.7818 46.9706 40.4115 46.5831 40.8015L40.7594 46.6627C40.3684 47.0563 39.7317 47.0563 39.3407 46.6627L33.517 40.8015Z" fill="#FF3C00"/>
</svg>
