<svg width="64" height="64" viewBox="0 0 64 64" fill="none" xmlns="http://www.w3.org/2000/svg">
<rect width="64" height="64" rx="16" fill="black"/>
<path d="M40.3333 22.1C39.1774 22.1008 38.0575 22.502 37.1641 23.2354C36.2707 23.9688 35.659 24.9891 35.4331 26.1227C35.2071 27.2563 35.3809 28.4331 35.9249 29.453C36.4689 30.4729 37.3494 31.2728 38.4166 31.7167C38.1629 32.3249 37.7346 32.8443 37.1858 33.2092C36.637 33.5741 35.9923 33.7681 35.3333 33.7667H28.6666C27.4917 33.7716 26.34 34.0941 25.3333 34.7V25.1334C26.4453 24.7402 27.3826 23.9666 27.9794 22.9492C28.5762 21.9319 28.7941 20.7363 28.5946 19.5738C28.3952 18.4113 27.7912 17.3568 26.8894 16.5965C25.9876 15.8363 24.8461 15.4193 23.6666 15.4193C22.4872 15.4193 21.3457 15.8363 20.4439 16.5965C19.5421 17.3568 18.9381 18.4113 18.7386 19.5738C18.5392 20.7363 18.7571 21.9319 19.3539 22.9492C19.9507 23.9666 20.8879 24.7402 22 25.1334V39.0667C20.9016 39.4617 19.9761 40.2285 19.3837 41.2343C18.7914 42.24 18.5696 43.4213 18.7567 44.5734C18.9439 45.7255 19.5282 46.7759 20.4085 47.5424C21.2887 48.3089 22.4094 48.7433 23.5763 48.7703C24.7432 48.7974 25.8828 48.4153 26.7976 47.6903C27.7124 46.9653 28.3447 45.9431 28.5849 44.8009C28.8252 43.6587 28.6583 42.4684 28.1131 41.4363C27.5679 40.4042 26.6789 39.5954 25.6 39.15C25.8526 38.5444 26.2784 38.0268 26.8239 37.6622C27.3694 37.2975 28.0104 37.1019 28.6666 37.1H35.3333C36.858 37.0997 38.3366 36.5768 39.5224 35.6184C40.7083 34.66 41.5298 33.3241 41.85 31.8334C42.9643 31.4547 43.9093 30.6952 44.5187 29.6884C45.1282 28.6817 45.363 27.4922 45.1818 26.3294C45.0006 25.1665 44.415 24.1049 43.5282 23.3313C42.6413 22.5577 41.51 22.1217 40.3333 22.1V22.1ZM23.6666 18.7667C23.9963 18.7667 24.3185 18.8644 24.5926 19.0476C24.8667 19.2307 25.0803 19.491 25.2064 19.7956C25.3326 20.1001 25.3656 20.4352 25.3013 20.7585C25.237 21.0818 25.0782 21.3788 24.8451 21.6119C24.6121 21.845 24.3151 22.0037 23.9918 22.068C23.6685 22.1323 23.3334 22.0993 23.0288 21.9732C22.7243 21.847 22.464 21.6334 22.2809 21.3593C22.0977 21.0852 22 20.763 22 20.4334C22 19.9913 22.1756 19.5674 22.4881 19.2548C22.8007 18.9423 23.2246 18.7667 23.6666 18.7667ZM23.6666 45.4334C23.337 45.4334 23.0148 45.3356 22.7407 45.1525C22.4666 44.9693 22.253 44.709 22.1268 44.4045C22.0007 44.1 21.9677 43.7648 22.032 43.4415C22.0963 43.1182 22.255 42.8213 22.4881 42.5882C22.7212 42.3551 23.0182 42.1964 23.3415 42.132C23.6648 42.0677 23.9999 42.1007 24.3044 42.2269C24.609 42.353 24.8693 42.5667 25.0524 42.8407C25.2356 43.1148 25.3333 43.4371 25.3333 43.7667C25.3333 44.2087 25.1577 44.6326 24.8451 44.9452C24.5326 45.2578 24.1087 45.4334 23.6666 45.4334ZM40.3333 28.7667C40.0037 28.7667 39.6814 28.6689 39.4074 28.4858C39.1333 28.3027 38.9197 28.0424 38.7935 27.7378C38.6674 27.4333 38.6344 27.0982 38.6987 26.7749C38.763 26.4516 38.9217 26.1546 39.1548 25.9215C39.3879 25.6884 39.6849 25.5297 40.0082 25.4654C40.3315 25.4011 40.6666 25.4341 40.9711 25.5602C41.2757 25.6864 41.536 25.9 41.7191 26.1741C41.9022 26.4482 42 26.7704 42 27.1C42 27.5421 41.8244 27.966 41.5118 28.2785C41.1993 28.5911 40.7753 28.7667 40.3333 28.7667Z" fill="white"/>
</svg>
