<svg width="64" height="64" viewBox="0 0 64 64" fill="none" xmlns="http://www.w3.org/2000/svg">
<rect width="64" height="64" rx="16" fill="white"/>
<path fill-rule="evenodd" clip-rule="evenodd" d="M23.0501 14.0444C24.1486 13.5576 25.2149 13.1033 26.3134 12.7139C26.5396 12.7139 26.7981 12.7464 27.0889 12.8113C25.7964 13.2656 24.5363 13.7523 23.2763 14.3364C23.1793 14.2066 23.1147 14.1093 23.0501 14.0444ZM19.8514 16.0563C20.7884 15.3748 21.79 14.7583 22.8239 14.1742C22.8562 14.2391 22.8885 14.3689 22.9855 14.4987C21.79 15.2126 20.6268 15.9265 19.5283 16.7053C19.5929 16.4457 19.7221 16.251 19.8514 16.0563ZM12 31.9893C12 31.1456 12.0646 30.2695 12.1616 29.4258C12.1939 29.1337 12.2585 28.8417 12.3231 28.5821C12.2585 29.5231 12.2262 30.5291 12.2262 31.5675C12.1292 32.1191 12.0646 32.6059 12.0323 33.0926C12.0323 32.7357 12 32.3787 12 31.9893ZM12.3554 28.3549C12.42 27.9331 12.517 27.5437 12.6139 27.1543C12.5816 27.3814 12.517 27.641 12.4847 27.9006C12.42 28.0629 12.3554 28.1927 12.3554 28.3549ZM12.7108 26.7324C12.937 25.8238 13.2601 24.9801 13.6155 24.1364C13.7771 23.7794 13.9386 23.4225 14.1325 23.0655C13.9063 23.747 13.6801 24.4609 13.4863 25.2721C13.0985 26.1159 12.7754 26.9271 12.4847 27.7059C12.5493 27.349 12.6462 27.0245 12.7108 26.7324ZM14.1971 22.8384L14.391 22.449C14.391 22.4814 14.3586 22.5139 14.3263 22.5788C14.294 22.6761 14.2617 22.7735 14.1971 22.8384ZM14.5848 22.1569C15.231 21.0212 15.9742 19.9503 16.8142 18.9768C16.5557 19.3338 16.5234 19.3338 16.2973 19.7881C15.6187 20.6642 15.0048 21.5404 14.4556 22.4165L14.5848 22.1569ZM17.0081 18.7172C17.5897 18.0682 18.2036 17.4516 18.8821 16.8675C19.2052 16.5755 19.2375 16.543 19.6252 16.251C19.496 16.4132 19.3667 16.6728 19.2698 16.9324C18.3005 17.7761 17.3635 18.6523 16.5234 19.5285C16.7496 19.0741 16.7496 19.0417 17.0081 18.7172ZM27.5412 12.4219C28.3813 12.2272 29.2213 12.0974 30.126 12C30.4491 12 30.7722 12.0324 31.0953 12.0649C29.8998 12.2272 28.6721 12.4543 27.412 12.7464C27.1212 12.6815 26.8627 12.649 26.6042 12.649C26.9273 12.5841 27.2181 12.4868 27.5412 12.4219ZM36.4265 12.3894C37.3635 12.6166 38.2682 12.8762 39.1082 13.2007L39.9806 13.5901C39.2052 13.3629 38.3328 13.1358 37.4281 12.9735C36.685 12.649 35.9742 12.4219 35.2956 12.1947C35.6834 12.2596 36.0711 12.3245 36.4265 12.3894ZM39.5283 13.3629C39.8837 13.4927 40.2391 13.655 40.5622 13.8172C40.433 13.7523 40.3037 13.6874 40.1422 13.6225C39.9483 13.5576 39.7544 13.4603 39.5283 13.3629ZM41.5315 14.3364C42.5977 14.9205 43.6317 15.5695 44.5687 16.3483C44.1809 16.0887 43.7609 15.8616 43.2763 15.6344C42.4362 15.0179 41.5961 14.4662 40.7884 13.9795C41.0469 14.1093 41.3053 14.2066 41.5315 14.3364ZM45.2472 16.9324L45.2795 16.9649C46.3457 18.0033 46.3457 18.0033 47.412 19.204C47.1535 19.0417 46.8304 18.9119 46.4426 18.8145C45.6349 17.8735 44.7948 16.9973 43.9548 16.1861C44.4717 16.4457 44.8918 16.6728 45.2472 16.9324ZM45.7964 17.4516C46.4426 18.0357 46.9919 18.6847 47.5412 19.3662C47.5089 19.3013 47.4766 19.3013 47.4443 19.2689C46.9273 18.6198 46.378 18.0357 45.7964 17.4516ZM51.9354 30.0423C51.9677 30.3019 51.9677 30.5291 52 30.7887C51.9677 31.4701 51.9677 31.5026 51.8061 32.2814C51.7092 31.1456 51.5477 29.9774 51.3215 28.8092C51.4507 28.3874 51.5153 27.998 51.5477 27.6735C51.6769 28.4847 51.8061 29.2635 51.9354 30.0423ZM51.5153 36.5973C51.483 36.6622 51.483 36.6946 51.483 36.7595C51.483 36.7271 51.483 36.6622 51.5153 36.6622C51.5477 36.6622 51.5153 36.5973 51.5153 36.5973ZM24.601 50.6807C24.504 50.6482 24.4394 50.6158 24.3425 50.5833C24.3748 50.5833 24.4071 50.6158 24.4717 50.6158C24.504 50.6158 24.5363 50.6482 24.601 50.6807ZM48.3813 42.341C49.1244 41.3675 49.7706 40.4264 50.3522 39.4853C50.126 40.2317 49.8998 40.8807 49.6737 41.4973C49.1244 42.3734 48.5105 43.2496 47.832 44.1257C48.0258 43.6065 48.2197 43.0224 48.3813 42.341ZM45.0533 45.5535C46.1842 44.58 47.2181 43.5741 48.1551 42.6006C47.9935 43.2496 47.832 43.8337 47.6058 44.3529C46.7658 45.229 45.8611 46.1052 44.8918 46.9813C44.9887 46.5595 45.021 46.1052 45.0533 45.5535ZM40.6914 48.4092C42.1131 47.5979 43.4378 46.7217 44.7625 45.7807C44.7625 46.3323 44.7302 46.7866 44.6656 47.1761C43.567 47.9873 42.4039 48.7337 41.1761 49.4151C41.0468 49.1555 40.8853 48.831 40.6914 48.4092ZM35.8449 50.4211C37.3635 49.9019 38.8498 49.2853 40.3037 48.6039C40.5299 48.9933 40.6914 49.3502 40.853 49.6098C39.5929 50.1939 38.3005 50.7131 37.0081 51.1674C36.685 50.9727 36.2649 50.7131 35.8449 50.4211ZM31.2569 51.3621C32.6139 51.1674 34.0355 50.8754 35.4895 50.5184C35.9418 50.8429 36.3619 51.0701 36.7173 51.2323C35.4572 51.5244 34.2294 51.7515 33.0016 51.9462C32.4523 51.784 31.8708 51.5893 31.2569 51.3621ZM27.4766 51.3297C28.5428 51.3946 29.706 51.427 30.9338 51.3621C31.5477 51.6217 32.1616 51.8164 32.7108 51.9787C31.6123 52.0111 30.5137 52.0111 29.5121 51.9462C28.8336 51.784 28.1551 51.5893 27.4766 51.3297ZM50.8045 35.6238C51.1922 34.8125 51.5477 34.0662 51.7738 33.3198C51.7415 34.3258 51.6769 35.2668 51.5477 36.1754C51.2892 36.9542 50.9661 37.7655 50.5784 38.6092C50.7076 37.6681 50.7722 36.6946 50.8045 35.6238ZM48.4782 38.739C49.3183 37.733 50.0614 36.7595 50.6753 35.8509C50.643 36.9218 50.5784 37.9277 50.4491 38.8688C49.8675 39.8098 49.189 40.7509 48.4459 41.7244C48.5105 40.8158 48.5105 39.8098 48.4782 38.739ZM44.5687 42.2436C45.8934 41.1403 47.1212 40.0695 48.252 38.9986C48.2843 40.0695 48.2843 41.0754 48.252 41.984C47.2827 42.99 46.1842 43.9959 45.0533 45.0019C44.9241 44.1906 44.7625 43.2496 44.5687 42.2436ZM39.3021 45.5535C41.0145 44.58 42.63 43.5741 44.2132 42.5032C44.4394 43.5092 44.601 44.4502 44.7302 45.2615C43.3732 46.2025 41.9838 47.1112 40.4976 47.9873C40.1422 47.2734 39.7544 46.4621 39.3021 45.5535ZM33.5186 48.0198C35.2956 47.3708 37.0727 46.5919 38.8498 45.7807C39.3344 46.6893 39.7221 47.4681 40.0775 48.1496C38.5267 48.8635 36.9758 49.48 35.4249 50.0317C34.8433 49.48 34.1971 48.831 33.5186 48.0198ZM28.2843 49.2853C29.8029 48.9933 31.4184 48.6363 33.0662 48.1496C33.7771 48.9284 34.4233 49.5774 35.0372 50.129C33.5509 50.486 32.0646 50.778 30.6753 51.0052C29.9321 50.5509 29.1244 49.9668 28.2843 49.2853ZM24.2779 49.48C25.3764 49.5125 26.6042 49.4476 27.9289 49.3502C28.769 50.0317 29.5767 50.5833 30.3522 51.0701C29.1244 51.1025 27.9289 51.1025 26.8304 51.0376C26.0226 50.5833 25.1502 50.0641 24.2779 49.48ZM21.5638 48.8959C22.2746 49.1231 23.1147 49.2853 24.0194 49.4151C24.8918 50.0317 25.7318 50.5509 26.5396 50.9727C25.6026 50.8105 24.7625 50.5833 23.9871 50.3562C23.2116 49.9668 22.4039 49.48 21.5638 48.8959ZM50.1583 30.7238C50.6107 30.0748 50.9984 29.4907 51.2569 28.939C51.483 30.1397 51.6446 31.3079 51.7738 32.4436C51.5153 33.1251 51.1922 33.8715 50.7722 34.6827C50.643 33.3847 50.4491 32.0542 50.1583 30.7238ZM47.4443 33.4172C48.4136 32.5085 49.2859 31.6648 49.9645 30.886C50.2552 32.2814 50.4491 33.6119 50.6107 34.8774C49.9645 35.786 49.2213 36.7595 48.3489 37.733C48.1551 36.3701 47.832 34.9423 47.4443 33.4172ZM42.8562 36.8569C44.4394 35.7536 45.8611 34.7152 47.1535 33.6768C47.5412 35.2019 47.8643 36.6297 48.1228 37.9926C46.9596 39.0635 45.6995 40.1668 44.3102 41.2701C43.9225 39.8748 43.4378 38.4145 42.8562 36.8569ZM36.7173 40.4589C38.6882 39.3555 40.5945 38.2522 42.4039 37.1489C42.9855 38.7065 43.4701 40.1993 43.9225 41.5622C42.3069 42.633 40.5945 43.6714 38.8174 44.6774C38.2036 43.3794 37.4927 41.9516 36.7173 40.4589ZM30.1906 43.4443C32.1615 42.6006 34.1648 41.692 36.2003 40.7185C36.9758 42.2436 37.6866 43.639 38.3651 44.9045C36.5234 45.7482 34.7141 46.5595 32.8724 47.2734C32.0323 46.1052 31.1276 44.8396 30.1906 43.4443ZM49.706 24.0715C49.9321 23.9092 50.0614 23.747 50.1583 23.6496C50.5784 24.688 50.9661 25.7264 51.3215 26.7973C51.2892 27.0894 51.2246 27.4139 51.063 27.8033C50.6753 26.5702 50.1906 25.3046 49.706 24.0715ZM48.1874 25.1099C48.769 24.7205 49.2536 24.396 49.609 24.1364C50.126 25.3695 50.5784 26.6351 50.9984 27.9006C50.7076 28.3874 50.3199 28.939 49.8352 29.5231C49.3506 28.0629 48.8013 26.6026 48.1874 25.1099ZM44.9887 26.992C46.1519 26.3106 47.1212 25.7264 47.9935 25.2072C48.6397 26.7324 49.189 28.2251 49.706 29.6854C48.9628 30.4317 48.0582 31.2105 47.0565 32.0867C46.4426 30.4317 45.7641 28.7119 44.9887 26.992ZM39.8191 29.8476C41.5638 28.8741 43.1793 27.998 44.6979 27.1867C45.441 28.9066 46.1519 30.6264 46.7658 32.3463C45.4087 33.3198 43.9225 34.3582 42.3393 35.4615C41.5315 33.6119 40.6914 31.7622 39.8191 29.8476ZM47.0889 19.6583C47.4443 19.7232 47.7351 19.8205 47.9612 19.9179C48.5751 20.8589 49.189 21.8 49.7383 22.7735C49.609 22.8384 49.4475 22.9357 49.189 23.0331C48.5428 21.8973 47.832 20.7616 47.0889 19.6583ZM45.0856 19.7881C45.8288 19.6907 46.4426 19.6583 46.9919 19.6583C47.7351 20.7616 48.4782 21.9298 49.1244 23.1304C48.7044 23.3576 48.1874 23.6172 47.5735 23.9092C46.7981 22.4814 45.958 21.1185 45.0856 19.7881ZM41.4346 20.7291C42.6947 20.3722 43.8255 20.0477 44.8271 19.8205C45.6995 21.151 46.5719 22.5463 47.3796 23.9741C46.475 24.4284 45.441 24.9801 44.2779 25.5642C43.3732 23.9092 42.4362 22.2867 41.4346 20.7291ZM35.9742 22.8059C37.7835 22.0596 39.496 21.4106 41.0792 20.8589C42.0808 22.449 43.0501 24.0715 43.9548 25.7589C42.4362 26.5377 40.7884 27.3814 39.0113 28.29C38.0097 26.4079 37.0081 24.5582 35.9742 22.8059ZM29.3183 25.9211C31.4184 24.8827 33.454 23.9092 35.4895 23.0006C36.5234 24.7854 37.525 26.6351 38.5267 28.5172C36.4911 29.5556 34.4233 30.6264 32.2908 31.6973C31.2892 29.7503 30.3199 27.8357 29.3183 25.9211ZM12.937 37.9602C12.9693 37.7006 13.0985 37.4085 13.2278 37.0516C13.6801 38.3171 14.1971 39.5502 14.7464 40.7834C14.5202 40.9132 14.3263 41.0105 14.1971 41.0754C13.7447 40.037 13.3247 38.9986 12.937 37.9602ZM41.4669 15.7318C42.3393 15.8291 43.1147 15.9914 43.7932 16.1536C44.6333 16.9649 45.4733 17.841 46.3134 18.7821C45.7318 18.7172 45.0856 18.7172 44.3102 18.7496C43.3732 17.7112 42.4362 16.6728 41.4669 15.7318ZM37.622 15.9914C38.9467 15.8291 40.1422 15.7642 41.2407 15.7318C42.21 16.6728 43.147 17.7112 44.1163 18.847C43.0824 19.0092 41.9192 19.2689 40.6268 19.5934C39.5929 18.2629 38.6236 17.0622 37.622 15.9914ZM32.3231 17.3543C34.0355 16.8351 35.6834 16.3808 37.2342 16.0563C38.2359 17.1596 39.2375 18.3602 40.2391 19.6907C38.6559 20.2099 36.9435 20.794 35.1341 21.4755C34.1648 19.9828 33.2278 18.6198 32.3231 17.3543ZM26.2488 19.9179C28.1551 19.0417 30.0291 18.2304 31.9031 17.4841C32.7754 18.7496 33.7124 20.145 34.6817 21.6377C32.6785 22.5139 30.643 23.4225 28.6074 24.4284C27.7351 22.8384 26.9596 21.3457 26.2488 19.9179ZM13.5186 29.9774C14.1648 29.1013 14.9725 28.1602 15.8772 27.1543C16.2003 28.5821 16.5557 30.1072 17.0081 31.6973C16.0065 32.5734 15.1018 33.3847 14.3586 34.1311C14.0032 32.7032 13.7124 31.3079 13.5186 29.9774ZM12.1292 34.0013C12.1292 33.547 12.1939 33.0602 12.3231 32.4761C12.4847 33.6443 12.7108 34.8125 12.9693 36.0456C12.8401 36.435 12.7431 36.792 12.7108 37.084C12.4523 36.0132 12.2585 35.0072 12.1292 34.0013ZM38.1066 13.298C39.0436 13.4603 39.8837 13.6874 40.6268 13.9146C41.4346 14.4013 42.2423 14.953 43.0824 15.5695C42.3716 15.3748 41.5961 15.2126 40.6914 15.0828C39.8191 14.4013 38.9467 13.8172 38.1066 13.298ZM34.294 13.2656C35.5541 13.2007 36.7496 13.2007 37.8158 13.298C38.6882 13.8172 39.5606 14.4338 40.4653 15.1152C39.3667 15.1152 38.1389 15.1477 36.8142 15.2775C35.9418 14.4662 35.1018 13.8172 34.294 13.2656ZM29.5444 14.1742C31.063 13.7848 32.5493 13.4927 33.9386 13.2656C34.7464 13.8497 35.5864 14.4987 36.4588 15.2775C34.9079 15.602 33.3247 15.9914 31.6446 16.4781C30.8691 15.602 30.1906 14.8232 29.5444 14.1742ZM24.3102 16.251C25.9257 15.5371 27.5089 14.8881 29.1244 14.304C29.7706 14.953 30.4491 15.7318 31.1922 16.6404C29.3829 17.3218 27.5735 18.1006 25.7318 18.9444C25.1826 17.9384 24.6979 17.0298 24.3102 16.251ZM19.496 19.2364C20.9176 18.2629 22.3716 17.3218 23.8901 16.4457C24.2779 17.2569 24.7302 18.1655 25.2472 19.1715C23.4701 20.1775 21.79 21.2159 20.1422 22.2867C19.8837 21.151 19.6575 20.145 19.496 19.2364ZM13.4863 25.7589C14.1002 24.8178 14.7787 23.8443 15.5541 22.8708C15.5541 23.8443 15.5864 24.9476 15.6834 26.0834C14.811 27.0894 14.0355 28.0304 13.4216 28.939C13.3893 27.8357 13.4216 26.7649 13.4863 25.7589ZM12.3877 28.4198C12.6462 27.641 12.9693 26.8298 13.3893 25.986C13.2924 26.9596 13.2601 28.0304 13.2924 29.1662C12.8724 29.9774 12.5493 30.7238 12.2908 31.4052C12.2585 30.3668 12.2908 29.3609 12.3877 28.4198ZM31.8384 12.1298C32.9693 12.0974 34.0355 12.0974 35.0372 12.1623C35.7157 12.357 36.4265 12.6166 37.1696 12.9411C36.0711 12.8762 34.9079 12.8437 33.6801 12.9086C33.0016 12.5841 32.3877 12.3245 31.8384 12.1298ZM27.7027 12.8437C28.9952 12.5517 30.2876 12.3245 31.5153 12.1298C32.0646 12.3245 32.6785 12.5841 33.357 12.9086C32 13.1358 30.546 13.3954 29.0598 13.7523C28.5428 13.3954 28.0905 13.1033 27.7027 12.8437ZM23.3732 14.5311C24.6979 13.947 26.0226 13.4278 27.3473 12.9735C27.7351 13.2007 28.1551 13.5252 28.6397 13.8821C27.0889 14.4338 25.5703 15.0503 24.0194 15.7642C23.7932 15.2775 23.567 14.8556 23.3732 14.5311ZM19.4313 17.0298C20.5945 16.2185 21.79 15.4397 23.0178 14.7258C23.1793 15.0503 23.4055 15.4722 23.6317 15.9589C22.1777 16.8026 20.7561 17.7112 19.399 18.6523C19.399 18.0033 19.399 17.4841 19.4313 17.0298ZM16.3296 19.9179C17.2019 19.0093 18.1389 18.1006 19.1405 17.2245C19.1082 17.6788 19.0759 18.2304 19.0759 18.8794C17.9128 19.8854 16.8142 20.8589 15.8449 21.8649C16.0065 21.151 16.1357 20.502 16.3296 19.9179ZM14.2294 22.8384C14.7787 21.9622 15.3926 21.0536 16.1034 20.145C15.9418 20.7291 15.7803 21.3781 15.651 22.1245C14.8756 23.098 14.1971 24.0715 13.6155 25.0125C13.8094 24.2337 14.0032 23.5198 14.2294 22.8384ZM34.5848 39.6151L28.5105 26.6026L24.9564 28.29L28.1874 35.137L19.916 30.9185L16.685 33.2225L22.3716 45.3588L25.9257 43.7039L22.5977 36.5648L31.4507 41.0754L34.5848 39.6151Z" fill="#007CF9"/>
</svg>
